name Walk4.mot
datacolumns 19
datarows 30
range 1.62500000 1.77000000
endheader

                time	   L_ground_force_vx	   L_ground_force_vy	   L_ground_force_vz	   L_ground_force_px	   L_ground_force_py	   L_ground_force_pz	   R_ground_force_vx	   R_ground_force_vy	   R_ground_force_vz	   R_ground_force_px	   R_ground_force_py	   R_ground_force_pz	   L_ground_torque_x	   L_ground_torque_y	   L_ground_torque_z	   R_ground_torque_x	   R_ground_torque_y	   R_ground_torque_z	
          1.62500000	         -0.07875058	          0.65073048	         -0.04697779	          0.00054264	          0.00000000	          0.00032074	         22.97614528	        683.59625770	        -15.26214151	         -0.09333088	          0.00000000	          0.35357897	          0.00000000	         -0.00049784	          0.00000000	          0.00000000	          0.65886347	          0.00000000	
          1.63000000	         -0.09679530	          0.62285538	         -0.03720321	          0.00041172	          0.00000000	          0.00023319	         26.55710567	        694.94537968	        -15.10015959	         -0.09260019	          0.00000000	          0.35330625	          0.00000000	         -0.00057737	          0.00000000	          0.00000000	          0.67364219	          0.00000000	
          1.63500000	         -0.11299630	          0.50257196	         -0.01737271	          0.00015680	          0.00000000	          0.00006790	         30.40259358	        705.93413634	        -14.94185197	         -0.09195166	          0.00000000	          0.35304950	          0.00000000	         -0.00063017	          0.00000000	          0.00000000	          0.69556649	          0.00000000	
          1.64000000	         -0.12432418	          0.25302319	          0.01569309	         -0.00026006	          0.00000000	         -0.00019823	         34.50738947	        716.46240621	        -14.78960367	         -0.09137738	          0.00000000	          0.35280652	          0.00000000	         -0.00063480	          0.00000000	          0.00000000	          0.72566329	          0.00000000	
          1.64500000	         -0.12665599	         -0.16732295	          0.06531985	         -0.00087804	          0.00000000	         -0.00058877	         38.86425120	        726.43159264	        -14.64271087	         -0.09086894	          0.00000000	          0.35257480	          0.00000000	         -0.00056372	          0.00000000	          0.00000000	          0.76496847	          0.00000000	
          1.65000000	         -0.11467193	         -0.80216658	          0.13465103	         -0.00173340	          0.00000000	         -0.00112516	         43.45949763	        735.74566604	        -14.49582000	         -0.09041658	          0.00000000	          0.35235311	          0.00000000	         -0.00038336	          0.00000000	          0.00000000	          0.81417539	          0.00000000	
          1.65500000	         -0.08184196	         -1.69319919	          0.22615842	         -0.00285347	          0.00000000	         -0.00182283	         48.27146489	        744.31082567	        -14.33969201	         -0.09001048	          0.00000000	          0.35214144	          0.00000000	         -0.00005484	          0.00000000	          0.00000000	          0.87273878	          0.00000000	
          1.66000000	         -0.02055416	         -2.87383836	          0.34096149	         -0.00424816	          0.00000000	         -0.00268596	         53.27027940	        752.03966889	        -14.16287890	         -0.08964147	          0.00000000	          0.35193882	          0.00000000	          0.00046422	          0.00000000	          0.00000000	          0.93934233	          0.00000000	
          1.66500000	          0.07755170	         -4.36047816	          0.47793295	         -0.00589909	          0.00000000	         -0.00370065	         58.41932414	        758.85689645	        -13.95387714	         -0.08930119	          0.00000000	          0.35174282	          0.00000000	          0.00121638	          0.00000000	          0.00000000	          1.01209073	          0.00000000	
          1.67000000	          0.22097168	         -6.14094470	          0.63258092	         -0.00774601	          0.00000000	         -0.00482655	         63.67649991	        764.70050837	        -13.70314957	         -0.08898233	          0.00000000	          0.35155064	          0.00000000	          0.00223927	          0.00000000	          0.00000000	          1.08871411	          0.00000000	
          1.67500000	          0.41736588	         -8.16001717	          0.79572082	         -0.00967075	          0.00000000	         -0.00598700	         68.99563518	        769.52253982	        -13.40408577	         -0.08867742	          0.00000000	          0.35135994	          0.00000000	          0.00355818	          0.00000000	          0.00000000	          1.16698533	          0.00000000	
          1.68000000	          0.67214608	        -10.30215856	          0.95198316	         -0.01147947	          0.00000000	         -0.00705822	         74.32898005	        773.28846290	        -13.05453544	         -0.08837863	          0.00000000	          0.35116975	          0.00000000	          0.00517604	          0.00000000	          0.00000000	          1.24406593	          0.00000000	
          1.68500000	          0.98655066	        -12.37202495	          1.07824923	         -0.01288422	          0.00000000	         -0.00785818	         79.62973232	        775.97735515	        -12.65822725	         -0.08807932	          0.00000000	          0.35097839	          0.00000000	          0.00706054	          0.00000000	          0.00000000	          1.31622922	          0.00000000	
          1.69000000	          1.35515739	        -14.07391452	          1.14216756	         -0.01348577	          0.00000000	         -0.00813649	         84.85476866	        777.58009684	        -12.22524612	         -0.08777544	          0.00000000	          0.35078341	          0.00000000	          0.00912843	          0.00000000	          0.00000000	          1.37949369	          0.00000000	
          1.69500000	          1.76282628	        -14.99209771	          1.10097918	         -0.01276064	          0.00000000	         -0.00756702	         89.96691787	        778.09338296	        -11.77201203	         -0.08746621	          0.00000000	          0.35058456	          0.00000000	          0.01122726	          0.00000000	          0.00000000	          1.43000545	          0.00000000	
          1.70000000	          2.18113091	        -14.57494733	          0.90096921	         -0.01005614	          0.00000000	         -0.00574578	         94.93822483	        777.51356985	        -11.32065230	         -0.08715322	          0.00000000	          0.35038398	          0.00000000	          0.01311550	          0.00000000	          0.00000000	          1.46436108	          0.00000000	
          1.70500000	          2.56443196	        -12.12695122	          0.47796292	         -0.00459859	          0.00000000	         -0.00219715	         99.75203735	        775.82863861	        -10.89724779	         -0.08683919	          0.00000000	          0.35018795	          0.00000000	          0.01444248	          0.00000000	          0.00000000	          1.47903272	          0.00000000	
          1.71000000	          2.84587738	         -6.81400213	         -0.24061077	          0.00447893	          0.00000000	          0.00360747	        104.40150361	        773.00920609	        -10.52802281	         -0.08652909	          0.00000000	          0.35000828	          0.00000000	          0.01473058	          0.00000000	          0.00000000	          1.47027185	          0.00000000	
          1.71500000	          2.93378106	          2.31126067	         -1.33146593	          0.01808185	          0.00000000	          0.01221418	        108.88689531	        768.99943773	        -10.23384604	         -0.08622946	          0.00000000	          0.34986283	          0.00000000	          0.01336314	          0.00000000	          0.00000000	          1.43469531	          0.00000000	
          1.72000000	          2.70903869	         16.25596700	         -2.86831619	          0.03706398	          0.00000000	          0.02412895	        113.21171358	        763.70946087	        -10.02501144	         -0.08594837	          0.00000000	          0.34977424	          0.00000000	          0.00958273	          0.00000000	          0.00000000	          1.36983407	          0.00000000	
          1.72500000	          2.02447945	         35.99624191	         -4.91110538	          0.06209329	          0.00000000	          0.03973283	        117.37686589	        757.01049403	         -9.89690229	         -0.08569485	          0.00000000	          0.34976822	          0.00000000	          0.00250581	          0.00000000	          0.00000000	          1.27536508	          0.00000000	
          1.73000000	          0.70731651	         62.33947867	         -7.49091220	          0.09346564	          0.00000000	          0.05916503	        121.37600095	        748.73313760	         -9.82762441	         -0.08547680	          0.00000000	          0.34987279	          0.00000000	         -0.00883882	          0.00000000	          0.00000000	          1.15351881	          0.00000000	
          1.73500000	         -1.43387265	         95.73037935	        -10.58997079	          0.13086011	          0.00000000	          0.08217050	        125.19139710	        738.66955584	         -9.77799612	         -0.08530154	          0.00000000	          0.35011736	          0.00000000	         -0.02543933	          0.00000000	          0.00000000	          1.00856859	          0.00000000	
          1.74000000	         -4.59596282	        135.99322848	        -14.11653910	          0.17303357	          0.00000000	          0.10791084	        128.78873701	        726.57927793	         -9.69485263	         -0.08517617	          0.00000000	          0.35052949	          0.00000000	         -0.04818845	          0.00000000	          0.00000000	          0.84672171	          0.00000000	
          1.74500000	         -8.96018828	        182.00727603	        -17.87483728	          0.21747239	          0.00000000	          0.13475085	        132.11343012	        712.19686660	         -9.51730432	         -0.08510658	          0.00000000	          0.35113551	          0.00000000	         -0.07772108	          0.00000000	          0.00000000	          0.67481426	          0.00000000	
          1.75000000	        -14.67060299	        231.40156311	        -21.53188514	          0.26071397	          0.00000000	          0.16048418	        135.08754652	        695.24370407	         -9.18464368	         -0.08509530	          0.00000000	          0.35196003	          0.00000000	         -0.11426250	          0.00000000	          0.00000000	          0.49989703	          0.00000000	
          1.75500000	        -21.83184762	        280.94660850	        -24.59920186	          0.30010137	          0.00000000	          0.18344497	        137.60830710	        675.44813673	         -8.64544413	         -0.08513998	          0.00000000	          0.35301796	          0.00000000	         -0.15807112	          0.00000000	          0.00000000	          0.33003699	          0.00000000	
          1.76000000	        -30.45491559	        328.11458082	        -26.49895812	          0.33423625	          0.00000000	          0.20275297	        139.55071465	        652.57027634	         -7.86788848	         -0.08523321	          0.00000000	          0.35430581	          0.00000000	         -0.21136205	          0.00000000	          0.00000000	          0.17381451	          0.00000000	
          1.76500000	        -40.37863958	        371.88406137	        -26.73503417	          0.36266138	          0.00000000	          0.21811575	        140.77235864	        626.42897209	         -6.84771629	         -0.08535930	          0.00000000	          0.35579388	          0.00000000	         -0.27913539	          0.00000000	          0.00000000	          0.03950059	          0.00000000	
          1.77000000	        -51.30304327	        412.12015771	        -25.03106211	          0.38555546	          0.00000000	          0.22965038	        141.11937414	        596.92069584	         -5.60895227	         -0.08549066	          0.00000000	          0.35741644	          0.00000000	         -0.36766684	          0.00000000	          0.00000000	         -0.06670534	          0.00000000	
